<svg width="32" height="32" viewBox="0 0 32 32" fill="none" xmlns="http://www.w3.org/2000/svg">
<rect width="32" height="32" rx="4" fill="#281C70"/>
<path d="M23.9999 18C24.3681 18 24.6666 17.7015 24.6666 17.3333C24.6666 16.9651 24.3681 16.6667 23.9999 16.6667C23.6317 16.6667 23.3333 16.9651 23.3333 17.3333C23.3333 17.7015 23.6317 18 23.9999 18Z" fill="url(#paint0_linear_318_1306)"/>
<path d="M5.89357 14.5885V23.1613C5.89357 23.9142 6.19787 24.6362 6.73953 25.1686C7.28119 25.7009 8.01585 26 8.78187 26H26.1117C26.8777 26 27.6124 25.7009 28.154 25.1686C28.6957 24.6362 29 23.9142 29 23.1613V11.8066C29 11.0537 28.6957 10.3317 28.154 9.79933C27.6124 9.26697 26.8777 8.96789 26.1117 8.96789H14.5079C14.3927 8.06872 14.0601 7.20972 13.538 6.46272C13.0159 5.71572 12.3194 5.10242 11.5067 4.67409C10.6941 4.24577 9.78895 4.01487 8.86694 4.00069C7.94493 3.98652 7.03287 4.18949 6.20701 4.59263C5.38114 4.99577 4.66547 5.58736 4.11984 6.31795C3.5742 7.04854 3.21445 7.8969 3.07066 8.79209C2.92687 9.68729 3.00323 10.6033 3.29334 11.4636C3.58346 12.3238 4.0789 13.1033 4.73825 13.7369C5.08826 14.064 5.476 14.3499 5.89357 14.5885ZM7.91538 15.2982H8.11034C8.33271 15.3312 8.55702 15.3502 8.78187 15.3549C8.96945 15.3657 9.15751 15.3657 9.34509 15.3549H9.4173H9.54005L9.86499 15.3053L10.0166 15.2698H10.1249L10.3849 15.2059L10.6232 15.1278H10.7026L10.8903 15.0569C10.9921 15.0216 11.0911 14.9789 11.1864 14.9291H11.2514L11.3741 14.8724L11.6702 14.7091L11.8074 14.6311C11.9085 14.5672 12.0096 14.5033 12.1034 14.4324L12.2262 14.3401C12.3274 14.2681 12.4238 14.1899 12.515 14.1059L12.6233 14.0137C12.7172 13.9285 12.8111 13.8433 12.8977 13.7511L12.9844 13.6588C13.071 13.5666 13.1504 13.4814 13.2299 13.382H23.9455C24.137 13.382 24.3206 13.4568 24.4561 13.5899C24.5915 13.723 24.6675 13.9035 24.6675 14.0917V14.8014C23.9015 14.8014 23.1669 15.1005 22.6252 15.6328C22.0835 16.1652 21.7792 16.8872 21.7792 17.6401C21.7792 18.3929 22.0835 19.115 22.6252 19.6473C23.1669 20.1797 23.9015 20.4788 24.6675 20.4788V21.1884C24.6675 21.3766 24.5915 21.5572 24.4561 21.6902C24.3206 21.8233 24.137 21.8981 23.9455 21.8981H7.33772V15.1775H7.44603C7.60489 15.2343 7.75652 15.2627 7.91538 15.284V15.2982ZM23.2234 17.4839C23.2234 17.1075 23.3755 16.7465 23.6464 16.4803C23.9172 16.2141 24.2845 16.0646 24.6675 16.0646H27.5558V18.9033H24.6675C24.2845 18.9033 23.9172 18.7538 23.6464 18.4876C23.3755 18.2214 23.2234 17.8604 23.2234 17.4839ZM27.5558 23.1613C27.5558 23.5377 27.4037 23.8988 27.1329 24.1649C26.862 24.4311 26.4947 24.5807 26.1117 24.5807H8.78187C8.39886 24.5807 8.03153 24.4311 7.7607 24.1649C7.48987 23.8988 7.33772 23.5377 7.33772 23.1613H23.9455C24.52 23.1613 25.071 22.937 25.4772 22.5377C25.8835 22.1385 26.1117 21.597 26.1117 21.0323V20.3226H27.5558V23.1613ZM27.5558 11.8066V14.6453H26.1117V13.9356C26.1117 13.3709 25.8835 12.8294 25.4772 12.4302C25.071 12.0309 24.52 11.8066 23.9455 11.8066H14.1325C14.1749 11.712 14.2111 11.6148 14.2408 11.5156C14.2584 11.4766 14.2729 11.4362 14.2841 11.395C14.2841 11.3098 14.3346 11.2176 14.3635 11.1324L14.4285 10.8698L14.4718 10.6285L14.5152 10.3872H26.1117C26.4947 10.3872 26.862 10.5368 27.1329 10.803C27.4037 11.0691 27.5558 11.4301 27.5558 11.8066ZM6.08853 6.34211C6.85294 5.74162 7.80329 5.41609 8.78187 5.41954C9.80496 5.42056 10.7947 5.77739 11.5757 6.42684C12.3568 7.07628 12.8788 7.97644 13.0493 8.96789C13.0931 9.20199 13.1148 9.43955 13.1143 9.67757C13.1086 10.4267 12.9019 11.1611 12.515 11.8066C12.4368 11.9396 12.3499 12.0676 12.2551 12.1898L12.1901 12.275C12.0895 12.4021 11.981 12.523 11.8651 12.6369C11.7466 12.7529 11.6213 12.8619 11.4897 12.9633L11.3741 13.0485C11.2776 13.1212 11.1763 13.1876 11.0709 13.2472L10.9337 13.3324C10.8027 13.408 10.6677 13.4767 10.5293 13.5382H10.486C10.3271 13.602 10.1683 13.6517 10.0094 13.7014H9.85776L9.48229 13.7795H9.33065C9.15134 13.8431 8.96803 13.8952 8.78187 13.9356C8.51554 13.9341 8.24983 13.9103 7.98759 13.8646C7.74212 13.8134 7.50079 13.7446 7.26551 13.6588C7.01556 13.5681 6.77398 13.4566 6.54344 13.3253C6.32796 13.1972 6.12493 13.0499 5.93689 12.8853L5.74915 12.7292C5.33632 12.3314 5.00864 11.8566 4.78542 11.3325C4.5622 10.8084 4.44796 10.2457 4.44942 9.67757C4.44938 9.03617 4.59678 8.40305 4.88061 7.82549C5.16443 7.24793 5.57735 6.74085 6.08853 6.34211Z" fill="url(#paint1_linear_318_1306)"/>
<path d="M6.71429 10.2143H7.78571V11.2857C7.78571 11.4752 7.86097 11.6568 7.99492 11.7908C8.12888 11.9247 8.31056 12 8.5 12C8.68944 12 8.87112 11.9247 9.00508 11.7908C9.13903 11.6568 9.21429 11.4752 9.21429 11.2857V10.2143H10.2857C10.4752 10.2143 10.6568 10.139 10.7908 10.0051C10.9247 9.87112 11 9.68944 11 9.5C11 9.31056 10.9247 9.12888 10.7908 8.99492C10.6568 8.86097 10.4752 8.78571 10.2857 8.78571H9.21429V7.71429C9.21429 7.52485 9.13903 7.34316 9.00508 7.20921C8.87112 7.07526 8.68944 7 8.5 7C8.31056 7 8.12888 7.07526 7.99492 7.20921C7.86097 7.34316 7.78571 7.52485 7.78571 7.71429V8.78571H6.71429C6.52485 8.78571 6.34316 8.86097 6.20921 8.99492C6.07526 9.12888 6 9.31056 6 9.5C6 9.68944 6.07526 9.87112 6.20921 10.0051C6.34316 10.139 6.52485 10.2143 6.71429 10.2143Z" fill="url(#paint2_linear_318_1306)"/>
<defs>
<linearGradient id="paint0_linear_318_1306" x1="23.9999" y1="16.6667" x2="23.9999" y2="18" gradientUnits="userSpaceOnUse">
<stop stop-color="#FF9E7E"/>
<stop offset="1" stop-color="#FF5018"/>
</linearGradient>
<linearGradient id="paint1_linear_318_1306" x1="16" y1="4" x2="16" y2="26" gradientUnits="userSpaceOnUse">
<stop stop-color="#FF9E7E"/>
<stop offset="1" stop-color="#FF5018"/>
</linearGradient>
<linearGradient id="paint2_linear_318_1306" x1="8.5" y1="7" x2="8.5" y2="12" gradientUnits="userSpaceOnUse">
<stop stop-color="#FF9E7E"/>
<stop offset="1" stop-color="#FF5018"/>
</linearGradient>
</defs>
</svg>
