<svg width="32" height="32" viewBox="0 0 32 32" fill="none" xmlns="http://www.w3.org/2000/svg">
<rect width="32" height="32" rx="4" fill="#281C70"/>
<path d="M28 7H3.6C2.2 7 1 8.2 1 9.7V15.9C1 17.4 2.2 18.6 3.7 18.6H6.2C6.6 18.6 7 18.3 7 17.8C7 17.3 6.7 17 6.2 17H3.6C3 17 2.4 16.5 2.4 15.8V9.7C2.4 9.1 2.9 8.5 3.6 8.5H27.9C28.5 8.5 29.1 9 29.1 9.7V15.7C29.1 16.3 28.6 16.9 27.9 16.9H24.7C24.3 16.9 23.9 17.2 23.9 17.7C23.9 18.2 24.2 18.5 24.7 18.5H27.9C29.4 18.5 30.6 17.3 30.6 15.8V9.8C30.6 8.2 29.4 7 28 7ZM27.3 11C27.3 10.6 27 10.2 26.5 10.2H5C4.6 10.2 4.2 10.5 4.2 11C4.2 11.5 4.5 11.8 5 11.8H26.5C27 11.8 27.3 11.4 27.3 11ZM22.6 12.5C22.2 12.3 21.8 12.5 21.6 12.9C21.3 13.7 21.3 14.9 21.2 16.4C21.1 18.9 21 22.3 19.4 23.9H8C9.4 21.7 9.5 18.5 9.6 16.1C9.6 15.1 9.7 13.9 9.8 13.6C10 13.2 9.9 12.8 9.5 12.6C9.1 12.4 8.7 12.5 8.5 12.9C8.2 13.5 8.1 14.4 8.1 16C8 18.6 7.9 22.5 5.9 24.1C5.7 24.3 5.6 24.6 5.7 24.9C5.8 25.2 6.1 25.4 6.4 25.4H19.8C20 25.4 20.2 25.3 20.3 25.2C22.6 23.2 22.7 19.3 22.8 16.4C22.8 15.2 22.9 14 23.1 13.5C23.2 13.1 23 12.6 22.6 12.5ZM15.4 15.7C17.2 15.7 18.6 14.6 18.6 13.2H12.2C12.3 14.6 13.7 15.7 15.4 15.7Z" fill="url(#paint0_linear_318_1312)"/>
<defs>
<linearGradient id="paint0_linear_318_1312" x1="15.8" y1="7" x2="15.8" y2="25.4" gradientUnits="userSpaceOnUse">
<stop stop-color="#FF9E7E"/>
<stop offset="1" stop-color="#FF5018"/>
</linearGradient>
</defs>
</svg>
