<svg width="42" height="42" viewBox="0 0 42 42" fill="none" xmlns="http://www.w3.org/2000/svg">
<circle cx="21" cy="21" r="21" fill="#1E2843"/>
<path d="M18.3273 3.64361L18.851 3.59998H18.8946C19.1273 3.59998 19.3164 3.64361 19.4619 3.73089C19.5783 3.78907 19.6655 3.89088 19.7237 4.03634C19.7819 4.1527 19.7528 4.60361 19.6364 5.38907C19.6074 5.62179 19.5055 6.34907 19.331 7.57089C19.2437 8.23998 19.2001 8.58907 19.2001 8.61816C19.2001 8.70543 19.3746 8.54543 19.7237 8.13816C21.091 6.85816 22.4728 5.86907 23.8692 5.17089C25.3528 4.44361 26.8801 3.94907 28.451 3.68725C29.3528 3.57089 30.3274 3.57089 31.3746 3.68725C32.771 3.97816 33.8474 4.61816 34.6037 5.60725C34.8946 5.95634 35.1419 6.45089 35.3455 7.09089C35.491 7.64361 35.5055 8.38543 35.3892 9.31634C34.9819 11.0327 33.9346 12.6327 32.2474 14.1163C31.2001 14.9891 30.0801 15.7309 28.8874 16.3418L28.5819 16.56L28.931 16.6909C29.4837 16.9236 30.0655 17.2291 30.6764 17.6073C32.3346 18.7127 33.3673 20.2254 33.7746 22.1454C33.8328 22.4363 33.8619 22.9163 33.8619 23.5854C33.8619 24.2836 33.8328 24.8073 33.7746 25.1563C33.4837 26.5527 32.9019 27.8618 32.0292 29.0836C30.3128 31.3818 27.9419 33.0982 24.9164 34.2327C24.131 34.5236 23.3601 34.7563 22.6037 34.9309C20.5964 35.3963 18.8946 35.4691 17.4983 35.1491C16.3055 34.9163 15.2292 34.4072 14.2692 33.6218C13.8037 33.3018 13.4837 32.9818 13.3092 32.6618C13.1055 32.0509 13.5273 31.3673 14.5746 30.6109C15.4473 30 16.291 29.6945 17.1055 29.6945C17.4255 29.6945 17.6874 29.8109 17.891 30.0436C17.9492 30.0727 18.0364 30.1454 18.1528 30.2618C18.2983 30.4073 18.5455 30.6109 18.8946 30.8727C20.0583 31.6873 21.4401 32.0218 23.0401 31.8763C25.3674 31.6436 27.0546 30.7418 28.1019 29.1709C28.5383 28.5309 28.8437 27.76 29.0183 26.8582C29.1637 26.1018 29.1783 25.3163 29.0619 24.5018C28.7419 23.0182 27.971 21.8109 26.7492 20.88C25.8764 20.24 24.7128 19.8036 23.2583 19.5709C22.4146 19.4545 21.571 19.4545 20.7274 19.5709C20.3783 19.6291 20.1164 19.6582 19.9419 19.6582C19.6801 19.6582 19.5055 19.6145 19.4183 19.5273C19.0401 19.3236 18.9819 18.96 19.2437 18.4363C19.5928 17.7382 20.2764 17.1563 21.2946 16.6909C21.6437 16.5163 22.0364 16.3709 22.4728 16.2545C26.5746 14.8872 29.091 13.6218 30.0219 12.4582C30.2837 12.0509 30.4728 11.6291 30.5892 11.1927C30.7637 10.64 30.7637 10.0145 30.5892 9.31634C30.4146 8.85089 30.1383 8.42907 29.7601 8.05088C29.1783 7.49816 28.3055 7.14907 27.1419 7.00361C26.0364 6.91634 24.9455 7.25088 23.8692 8.00725C23.171 8.55998 22.5455 9.19998 21.9928 9.92725C19.7528 12.7491 17.8037 17.3745 16.1455 23.8036C15.3892 26.8 14.4146 29.4763 13.2219 31.8327C12.6983 32.9091 12.2764 33.6072 11.9564 33.9272C10.9673 34.8582 9.92008 35.3236 8.81462 35.3236C8.58189 35.3236 8.40735 35.28 8.29099 35.1927C8.05826 35.0472 7.94189 34.8291 7.94189 34.5382L8.59644 33.0982C9.78917 30.7418 10.7637 28.0509 11.5201 25.0254C12.771 19.9345 13.731 15.1491 14.4001 10.6691C14.6619 9.18543 14.7928 8.29816 14.7928 8.00725L14.051 8.39998C13.2364 8.77816 12.5819 8.98179 12.0873 9.01088C11.7964 9.01088 11.5928 8.96725 11.4764 8.87997C11.2146 8.76361 11.0837 8.55998 11.0837 8.26907C11.0837 7.68725 11.5928 7.06179 12.611 6.3927C13.2219 5.95634 14.8073 5.15634 17.3673 3.9927C17.6292 3.84725 17.7892 3.77452 17.8474 3.77452C18.1383 3.68725 18.2983 3.64361 18.3273 3.64361Z" fill="white"/>
</svg>
